<svg xmlns="http://www.w3.org/2000/svg" xmlns:xlink="http://www.w3.org/1999/xlink" width="323" height="321" viewBox="0 0 323 321">
  <defs>
    <filter id="Ellipse_15" x="0" y="3" width="318" height="318" filterUnits="userSpaceOnUse">
      <feOffset dy="3" input="SourceAlpha"/>
      <feGaussianBlur stdDeviation="37" result="blur"/>
      <feFlood flood-opacity="0.161"/>
      <feComposite operator="in" in2="blur"/>
      <feComposite in="SourceGraphic"/>
    </filter>
    <filter id="Ellipse_16" x="5" y="0" width="318" height="318" filterUnits="userSpaceOnUse">
      <feOffset dy="3" input="SourceAlpha"/>
      <feGaussianBlur stdDeviation="37" result="blur-2"/>
      <feFlood flood-opacity="0.161"/>
      <feComposite operator="in" in2="blur-2"/>
      <feComposite in="SourceGraphic"/>
    </filter>
  </defs>
  <g id="Group_769" data-name="Group 769" transform="translate(-301 -62)">
    <g id="Group_759" data-name="Group 759" transform="translate(411.577 169.875)">
      <g transform="matrix(1, 0, 0, 1, -110.58, -107.88)" filter="url(#Ellipse_15)">
        <circle id="Ellipse_15-2" data-name="Ellipse 15" cx="48" cy="48" r="48" transform="translate(111 111)" fill="#813049"/>
      </g>
      <g transform="matrix(1, 0, 0, 1, -110.58, -107.88)" filter="url(#Ellipse_16)">
        <g id="Ellipse_16-2" data-name="Ellipse 16" transform="translate(116 108)" fill="none" stroke="#000" stroke-width="2">
          <circle cx="48" cy="48" r="48" stroke="none"/>
          <circle cx="48" cy="48" r="47" fill="none"/>
        </g>
      </g>
    </g>
    <g id="palm-of-hand" transform="translate(444.94 198)">
      <circle id="Ellipse_17" data-name="Ellipse 17" cx="2.459" cy="2.459" r="2.459" transform="translate(28.633 6.558)" fill="#fdfdfd"/>
      <circle id="Ellipse_18" data-name="Ellipse 18" cx="2.459" cy="2.459" r="2.459" transform="translate(22.075 1.639)" fill="#fdfdfd"/>
      <circle id="Ellipse_19" data-name="Ellipse 19" cx="2.459" cy="2.459" r="2.459" transform="translate(15.517)" fill="#fdfdfd"/>
      <circle id="Ellipse_20" data-name="Ellipse 20" cx="2.459" cy="2.459" r="2.459" transform="translate(8.959 3.279)" fill="#fdfdfd"/>
      <path id="Path_779" data-name="Path 779" d="M31.4,8.058V18.715a.82.82,0,0,1-1.639,0V3.139H24.842V17.075a.82.82,0,0,1-1.639,0V1.5H18.284V17.075a.82.82,0,0,1-1.639,0V4.779H11.726V25.272l-3.32-4.543A3.2,3.2,0,0,0,4.1,19.574a3.1,3.1,0,0,0-.779,4.338s5.355,8.1,7.637,11.573,5.979,6.182,12.893,6.182c11.447,0,12.472-8.84,12.472-11.476V8.058Z" transform="translate(-2.767 0.959)" fill="#fdfdfd"/>
    </g>
  </g>
</svg>
