<svg xmlns="http://www.w3.org/2000/svg" xmlns:xlink="http://www.w3.org/1999/xlink" width="324" height="321" viewBox="0 0 324 321">
  <defs>
    <filter id="Ellipse_15" x="0" y="3" width="319" height="318" filterUnits="userSpaceOnUse">
      <feOffset dy="3" input="SourceAlpha"/>
      <feGaussianBlur stdDeviation="37" result="blur"/>
      <feFlood flood-opacity="0.161"/>
      <feComposite operator="in" in2="blur"/>
      <feComposite in="SourceGraphic"/>
    </filter>
    <filter id="Ellipse_16" x="6" y="0" width="318" height="318" filterUnits="userSpaceOnUse">
      <feOffset dy="3" input="SourceAlpha"/>
      <feGaussianBlur stdDeviation="37" result="blur-2"/>
      <feFlood flood-opacity="0.161"/>
      <feComposite operator="in" in2="blur-2"/>
      <feComposite in="SourceGraphic"/>
    </filter>
  </defs>
  <g id="Group_768" data-name="Group 768" transform="translate(-136 -62)">
    <g transform="matrix(1, 0, 0, 1, 136, 62)" filter="url(#Ellipse_15)">
      <ellipse id="Ellipse_15-2" data-name="Ellipse 15" cx="48.5" cy="48" rx="48.5" ry="48" transform="translate(111 111)" fill="#fc9108"/>
    </g>
    <g transform="matrix(1, 0, 0, 1, 136, 62)" filter="url(#Ellipse_16)">
      <g id="Ellipse_16-2" data-name="Ellipse 16" transform="translate(117 108)" fill="none" stroke="#000" stroke-width="2">
        <circle cx="48" cy="48" r="48" stroke="none"/>
        <circle cx="48" cy="48" r="47" fill="none"/>
      </g>
    </g>
    <g id="right-arrow" transform="translate(302.234 200)">
      <g id="Group_761" data-name="Group 761" transform="translate(0)">
        <path id="Path_780" data-name="Path 780" d="M123.06,17.407,106.256.6a2.07,2.07,0,0,0-2.921,0L102.1,1.84a2.068,2.068,0,0,0,0,2.921l14.111,14.111L102.081,33a2.07,2.07,0,0,0,0,2.922l1.237,1.237a2.07,2.07,0,0,0,2.921,0l16.82-16.819a2.085,2.085,0,0,0,0-2.931Z" transform="translate(-101.478 0)" fill="#fff"/>
      </g>
    </g>
    <g id="right-arrow-2" data-name="right-arrow" transform="translate(271.452 200)">
      <g id="Group_761-2" data-name="Group 761" transform="translate(0)">
        <path id="Path_780-2" data-name="Path 780" d="M102.08,17.407,118.884.6a2.07,2.07,0,0,1,2.921,0l1.238,1.237a2.068,2.068,0,0,1,0,2.921L108.932,18.872,123.059,33a2.07,2.07,0,0,1,0,2.922l-1.237,1.237a2.07,2.07,0,0,1-2.921,0L102.08,20.338a2.085,2.085,0,0,1,0-2.931Z" transform="translate(-101.478)" fill="#fff"/>
      </g>
    </g>
  </g>
</svg>
